TITLE ""
FILE "2Q_t_1218-1235.mp3" MP3
  TRACK 01 AUDIO
    TITLE "2Q_t_1218-1235_01"
    INDEX 01 00:00:00
  TRACK 02 AUDIO
    TITLE "2Q_t_1218-1235_02"
    INDEX 01 00:00:10
  TRACK 03 AUDIO
    TITLE "2Q_t_1218-1235_03"
    INDEX 01 00:01:23
  TRACK 04 AUDIO
    TITLE "2Q_t_1218-1235_04"
    INDEX 01 00:01:74
  TRACK 05 AUDIO
    TITLE "2Q_t_1218-1235_05"
    INDEX 01 00:03:30
  TRACK 06 AUDIO
    TITLE "2Q_t_1218-1235_06"
    INDEX 01 00:04:00
  TRACK 07 AUDIO
    TITLE "2Q_t_1218-1235_07"
    INDEX 01 00:05:13
  TRACK 08 AUDIO
    TITLE "2Q_t_1218-1235_08"
    INDEX 01 00:05:64
  TRACK 09 AUDIO
    TITLE "2Q_t_1218-1235_09"
    INDEX 01 00:07:14
  TRACK 10 AUDIO
    TITLE "2Q_t_1218-1235_10"
    INDEX 01 00:07:59
  TRACK 11 AUDIO
    TITLE "2Q_t_1218-1235_11"
    INDEX 01 00:08:74
  TRACK 12 AUDIO
    TITLE "2Q_t_1218-1235_12"
    INDEX 01 00:09:48
  TRACK 13 AUDIO
    TITLE "2Q_t_1218-1235_13"
    INDEX 01 00:11:04
  TRACK 14 AUDIO
    TITLE "2Q_t_1218-1235_14"
    INDEX 01 00:11:49
  TRACK 15 AUDIO
    TITLE "2Q_t_1218-1235_15"
    INDEX 01 00:12:39
  TRACK 16 AUDIO
    TITLE "2Q_t_1218-1235_16"
    INDEX 01 00:13:21
  TRACK 17 AUDIO
    TITLE "2Q_t_1218-1235_17"
    INDEX 01 00:15:53
  TRACK 18 AUDIO
    TITLE "2Q_t_1218-1235_18"
    INDEX 01 00:16:23
  TRACK 19 AUDIO
    TITLE "2Q_t_1218-1235_19"
    INDEX 01 00:17:40
  TRACK 20 AUDIO
    TITLE "2Q_t_1218-1235_20"
    INDEX 01 00:18:12
  TRACK 21 AUDIO
    TITLE "2Q_t_1218-1235_21"
    INDEX 01 00:19:45
  TRACK 22 AUDIO
    TITLE "2Q_t_1218-1235_22"
    INDEX 01 00:20:19
  TRACK 23 AUDIO
    TITLE "2Q_t_1218-1235_23"
    INDEX 01 00:21:24
  TRACK 24 AUDIO
    TITLE "2Q_t_1218-1235_24"
    INDEX 01 00:21:69
  TRACK 25 AUDIO
    TITLE "2Q_t_1218-1235_25"
    INDEX 01 00:23:11
  TRACK 26 AUDIO
    TITLE "2Q_t_1218-1235_26"
    INDEX 01 00:23:58
  TRACK 27 AUDIO
    TITLE "2Q_t_1218-1235_27"
    INDEX 01 00:24:54
  TRACK 28 AUDIO
    TITLE "2Q_t_1218-1235_28"
    INDEX 01 00:25:30
  TRACK 29 AUDIO
    TITLE "2Q_t_1218-1235_29"
    INDEX 01 00:28:54
  TRACK 30 AUDIO
    TITLE "2Q_t_1218-1235_30"
    INDEX 01 00:29:24
  TRACK 31 AUDIO
    TITLE "2Q_t_1218-1235_31"
    INDEX 01 00:30:45
  TRACK 32 AUDIO
    TITLE "2Q_t_1218-1235_32"
    INDEX 01 00:31:21
  TRACK 33 AUDIO
    TITLE "2Q_t_1218-1235_33"
    INDEX 01 00:34:33
  TRACK 34 AUDIO
    TITLE "2Q_t_1218-1235_34"
    INDEX 01 00:35:03
  TRACK 35 AUDIO
    TITLE "2Q_t_1218-1235_35"
    INDEX 01 00:36:41
  TRACK 36 AUDIO
    TITLE "2Q_t_1218-1235_36"
    INDEX 01 00:37:13
  TRACK 37 AUDIO
    TITLE "2Q_t_1218-1235_37"
    INDEX 01 00:39:61
  TRACK 38 AUDIO
    TITLE "2Q_t_1218-1235_38"
    INDEX 01 00:40:31
  TRACK 39 AUDIO
    TITLE "2Q_t_1218-1235_39"
    INDEX 01 00:41:48
  TRACK 40 AUDIO
    TITLE "2Q_t_1218-1235_40"
    INDEX 01 00:42:20
  TRACK 41 AUDIO
    TITLE "2Q_t_1218-1235_41"
    INDEX 01 00:43:53
  TRACK 42 AUDIO
    TITLE "2Q_t_1218-1235_42"
    INDEX 01 00:44:23
  TRACK 43 AUDIO
    TITLE "2Q_t_1218-1235_43"
    INDEX 01 00:45:44
  TRACK 44 AUDIO
    TITLE "2Q_t_1218-1235_44"
    INDEX 01 00:46:22
  TRACK 45 AUDIO
    TITLE "2Q_t_1218-1235_45"
    INDEX 01 00:49:09
  TRACK 46 AUDIO
    TITLE "2Q_t_1218-1235_46"
    INDEX 01 00:49:56
  TRACK 47 AUDIO
    TITLE "2Q_t_1218-1235_47"
    INDEX 01 00:50:63
  TRACK 48 AUDIO
    TITLE "2Q_t_1218-1235_48"
    INDEX 01 00:51:35
  TRACK 49 AUDIO
    TITLE "2Q_t_1218-1235_49"
    INDEX 01 00:55:49
  TRACK 50 AUDIO
    TITLE "2Q_t_1218-1235_50"
    INDEX 01 00:56:21
  TRACK 51 AUDIO
    TITLE "2Q_t_1218-1235_51"
    INDEX 01 00:57:36
  TRACK 52 AUDIO
    TITLE "2Q_t_1218-1235_52"
    INDEX 01 00:58:08
  TRACK 53 AUDIO
    TITLE "2Q_t_1218-1235_53"
    INDEX 01 01:00:42
  TRACK 54 AUDIO
    TITLE "2Q_t_1218-1235_54"
    INDEX 01 01:01:14
  TRACK 55 AUDIO
    TITLE "2Q_t_1218-1235_55"
    INDEX 01 01:02:21
  TRACK 56 AUDIO
    TITLE "2Q_t_1218-1235_56"
    INDEX 01 01:02:68
  TRACK 57 AUDIO
    TITLE "2Q_t_1218-1235_57"
    INDEX 01 01:05:35
  TRACK 58 AUDIO
    TITLE "2Q_t_1218-1235_58"
    INDEX 01 01:06:07
  TRACK 59 AUDIO
    TITLE "2Q_t_1218-1235_59"
    INDEX 01 01:07:13
  TRACK 60 AUDIO
    TITLE "2Q_t_1218-1235_60"
    INDEX 01 01:07:64
  TRACK 61 AUDIO
    TITLE "2Q_t_1218-1235_61"
    INDEX 01 01:10:48
  TRACK 62 AUDIO
    TITLE "2Q_t_1218-1235_62"
    INDEX 01 01:11:18
  TRACK 63 AUDIO
    TITLE "2Q_t_1218-1235_63"
    INDEX 01 01:12:39
  TRACK 64 AUDIO
    TITLE "2Q_t_1218-1235_64"
    INDEX 01 01:13:15
  TRACK 65 AUDIO
    TITLE "2Q_t_1218-1235_65"
    INDEX 01 01:14:38
  TRACK 66 AUDIO
    TITLE "2Q_t_1218-1235_66"
    INDEX 01 01:15:08
  TRACK 67 AUDIO
    TITLE "2Q_t_1218-1235_67"
    INDEX 01 01:16:23
  TRACK 68 AUDIO
    TITLE "2Q_t_1218-1235_68"
    INDEX 01 01:16:70
  TRACK 69 AUDIO
    TITLE "2Q_t_1218-1235_69"
    INDEX 01 01:18:32
  TRACK 70 AUDIO
    TITLE "2Q_t_1218-1235_70"
    INDEX 01 01:19:02
  TRACK 71 AUDIO
    TITLE "2Q_t_1218-1235_71"
    INDEX 01 01:20:17
  TRACK 72 AUDIO
    TITLE "2Q_t_1218-1235_72"
    INDEX 01 01:20:62
  TRACK 73 AUDIO
    TITLE "2Q_t_1218-1235_73"
    INDEX 01 01:22:61
